# FreeCAD v0.21 build1 Arch module
# http://www.freecad.org
mtllib tube-Tube.mtl
o Tube
usemtl color_cccccc
v 51.683094 18.811108 8700.0
v 55.0 -0.0 8700.0
v 55.0 -0.0 0.0
v 51.683094 18.811108 0.0
v 42.132442 35.353317 8700.0
v 42.132442 35.353317 0.0
v 27.5 47.631397 0.0
v 27.5 47.631397 8700.0
v 9.55065 54.164425 8700.0
v 9.55065 54.164425 0.0
v -9.55065 54.164425 0.0
v -9.55065 54.164425 8700.0
v -27.5 47.631397 8700.0
v -27.5 47.631397 0.0
v -42.132442 35.353317 8700.0
v -42.132442 35.353317 0.0
v -51.683094 18.811108 8700.0
v -51.683094 18.811108 0.0
v -55.0 0.0 0.0
v -55.0 0.0 8700.0
v -51.683094 -18.811108 0.0
v -51.683094 -18.811108 8700.0
v -42.132442 -35.353317 8700.0
v -42.132442 -35.353317 0.0
v -27.5 -47.631397 8700.0
v -27.5 -47.631397 0.0
v -9.55065 -54.164425 8700.0
v -9.55065 -54.164425 0.0
v 9.55065 -54.164425 0.0
v 9.55065 -54.164425 8700.0
v 27.5 -47.631397 8700.0
v 27.5 -47.631397 0.0
v 42.132442 -35.353317 0.0
v 42.132442 -35.353317 8700.0
v 51.683094 -18.811108 8700.0
v 51.683094 -18.811108 0.0
v -30.641777 -25.711504 8700.0
v -20.0 -34.641018 8700.0
v -37.587704 -13.680806 8700.0
v -6.945927 -39.392311 8700.0
v -40.0 0.0 8700.0
v 6.945927 -39.392311 8700.0
v -37.587704 13.680806 8700.0
v 20.0 -34.641018 8700.0
v -30.641777 25.711504 8700.0
v 30.641777 -25.711504 8700.0
v -20.0 34.641018 8700.0
v 37.587704 -13.680806 8700.0
v -6.945927 39.392311 8700.0
v 37.587704 13.680806 8700.0
v 40.0 -0.0 8700.0
v 6.945927 39.392311 8700.0
v 20.0 34.641018 8700.0
v 30.641777 25.711504 8700.0
v -30.641777 -25.711504 0.0
v -20.0 -34.641018 0.0
v -37.587704 -13.680806 0.0
v -6.945927 -39.392311 0.0
v -40.0 0.0 0.0
v 6.945927 -39.392311 0.0
v -37.587704 13.680806 0.0
v 20.0 -34.641018 0.0
v -30.641777 25.711504 0.0
v 30.641777 -25.711504 0.0
v -20.0 34.641018 0.0
v 37.587704 -13.680806 0.0
v -6.945927 39.392311 0.0
v 37.587704 13.680806 0.0
v 40.0 -0.0 0.0
v 6.945927 39.392311 0.0
v 20.0 34.641018 0.0
v 30.641777 25.711504 0.0
vn 0.9848077297210693 0.1736481785774231 0.0
vn 0.9848077297210693 0.1736481785774231 0.0
vn 0.8660253882408142 0.5000001192092896 0.0
vn 0.6427876949310303 0.7660443782806396 0.0
vn 0.8660253882408142 0.5000001192092896 0.0
vn 0.6427876949310303 0.7660443782806396 0.0
vn 0.34202006459236145 0.9396926760673523 0.0
vn 0.0 1.0 0.0
vn 0.34202006459236145 0.9396926760673523 0.0
vn -0.0 1.0 0.0
vn -0.34202006459236145 0.9396926760673523 0.0
vn -0.34202006459236145 0.9396926760673523 0.0
vn -0.6427876949310303 0.7660443782806396 0.0
vn -0.6427876949310303 0.7660443782806396 0.0
vn -0.8660253882408142 0.5000001192092896 0.0
vn -0.9848077297210693 0.1736481785774231 0.0
vn -0.8660253882408142 0.5000001192092896 0.0
vn -0.9848077297210693 -0.1736481785774231 -0.0
vn -0.9848077297210693 0.1736481785774231 0.0
vn -0.9848077297210693 -0.1736481785774231 -0.0
vn -0.8660253882408142 -0.5000001192092896 -0.0
vn -0.8660253882408142 -0.5000001192092896 0.0
vn -0.6427876949310303 -0.7660443782806396 -0.0
vn -0.6427876949310303 -0.7660443782806396 0.0
vn -0.34202006459236145 -0.9396926760673523 -0.0
vn 0.0 -1.0 0.0
vn -0.34202006459236145 -0.9396926760673523 0.0
vn -0.0 -1.0 -0.0
vn 0.34202006459236145 -0.9396926760673523 0.0
vn 0.34202006459236145 -0.9396926760673523 0.0
vn 0.6427876949310303 -0.7660443782806396 0.0
vn 0.6427876949310303 -0.7660443782806396 0.0
vn 0.8660253882408142 -0.5000001192092896 0.0
vn 0.8660253882408142 -0.5000001192092896 0.0
vn 0.9848077297210693 -0.1736481785774231 0.0
vn 0.9848077297210693 -0.1736481785774231 0.0
vn 0.0 0.0 1.0
vn 0.0 0.0 1.0
vn 0.0 0.0 1.0
vn 0.0 0.0 1.0
vn 0.0 0.0 1.0
vn 0.0 0.0 1.0
vn 0.0 0.0 1.0
vn 0.0 0.0 1.0
vn 0.0 0.0 1.0
vn 0.0 0.0 1.0
vn 0.0 0.0 1.0
vn 0.0 0.0 1.0
vn 0.0 0.0 1.0
vn 0.0 0.0 1.0
vn 0.0 0.0 1.0
vn 0.0 0.0 1.0
vn 0.0 0.0 1.0
vn 0.0 0.0 1.0
vn 0.0 0.0 1.0
vn 0.0 0.0 1.0
vn 0.0 0.0 1.0
vn 0.0 0.0 1.0
vn 0.0 0.0 1.0
vn 0.0 0.0 1.0
vn 0.0 0.0 1.0
vn 0.0 0.0 1.0
vn 0.0 0.0 1.0
vn 0.0 0.0 1.0
vn 0.0 0.0 1.0
vn 0.0 0.0 1.0
vn 0.0 0.0 1.0
vn 0.0 0.0 1.0
vn 0.0 0.0 1.0
vn 0.0 0.0 1.0
vn 0.0 0.0 1.0
vn 0.0 0.0 1.0
vn 0.0 0.0 -1.0
vn 0.0 0.0 -1.0
vn 0.0 -0.0 -1.0
vn 0.0 0.0 -1.0
vn 0.0 0.0 -1.0
vn 0.0 0.0 -1.0
vn 0.0 -0.0 -1.0
vn 0.0 -0.0 -1.0
vn 0.0 0.0 -1.0
vn 0.0 0.0 -1.0
vn 0.0 -0.0 -1.0
vn 0.0 0.0 -1.0
vn 0.0 0.0 -1.0
vn 0.0 0.0 -1.0
vn 0.0 -0.0 -1.0
vn 0.0 0.0 -1.0
vn 0.0 0.0 -1.0
vn 0.0 -0.0 -1.0
vn 0.0 0.0 -1.0
vn 0.0 0.0 -1.0
vn 0.0 -0.0 -1.0
vn 0.0 0.0 -1.0
vn 0.0 0.0 -1.0
vn 0.0 0.0 -1.0
vn 0.0 0.0 -1.0
vn 0.0 -0.0 -1.0
vn 0.0 0.0 -1.0
vn 0.0 0.0 -1.0
vn 0.0 0.0 -1.0
vn 0.0 0.0 -1.0
vn 0.0 0.0 -1.0
vn 0.0 0.0 -1.0
vn 0.0 -0.0 -1.0
vn 0.0 0.0 -1.0
vn 0.0 0.0 -1.0
vn 0.0 0.0 -1.0
vn -0.9848077297210693 -0.17364825308322906 -0.0
vn -0.9848077297210693 -0.17364825308322906 0.0
vn -0.8660253882408142 -0.5 0.0
vn -0.642787754535675 -0.7660443186759949 0.0
vn -0.8660253882408142 -0.5 -0.0
vn -0.642787754535675 -0.7660443186759949 0.0
vn -0.34202006459236145 -0.9396926164627075 0.0
vn 0.0 -1.0 0.0
vn -0.34202006459236145 -0.9396926164627075 -0.0
vn -0.0 -1.0 0.0
vn 0.34202006459236145 -0.9396926164627075 0.0
vn 0.34202006459236145 -0.9396926164627075 0.0
vn 0.642787754535675 -0.7660443186759949 0.0
vn 0.642787754535675 -0.7660443186759949 0.0
vn 0.8660253882408142 -0.5 0.0
vn 0.9848077297210693 -0.17364825308322906 0.0
vn 0.8660253882408142 -0.5 0.0
vn 0.9848077297210693 0.17364825308322906 -0.0
vn 0.9848077297210693 -0.17364825308322906 0.0
vn 0.9848077297210693 0.17364825308322906 0.0
vn 0.8660253882408142 0.5 0.0
vn 0.8660253882408142 0.5 0.0
vn 0.642787754535675 0.7660443186759949 0.0
vn 0.642787754535675 0.7660443186759949 0.0
vn 0.34202006459236145 0.9396926164627075 0.0
vn 0.0 1.0 0.0
vn 0.34202006459236145 0.9396926164627075 0.0
vn -0.0 1.0 0.0
vn -0.34202006459236145 0.9396926164627075 0.0
vn -0.34202006459236145 0.9396926164627075 0.0
vn -0.642787754535675 0.7660443186759949 0.0
vn -0.642787754535675 0.7660443186759949 0.0
vn -0.8660253882408142 0.5 0.0
vn -0.8660253882408142 0.5 0.0
vn -0.9848077297210693 0.17364825308322906 0.0
vn -0.9848077297210693 0.17364825308322906 0.0
f 1//1 2//1 3//1 
f 1//2 3//2 4//2 
f 5//3 4//3 6//3 
f 5//4 6//4 7//4 
f 5//5 1//5 4//5 
f 8//6 5//6 7//6 
f 9//7 7//7 10//7 
f 9//8 10//8 11//8 
f 9//9 8//9 7//9 
f 12//10 9//10 11//10 
f 13//11 11//11 14//11 
f 13//12 12//12 11//12 
f 15//13 14//13 16//13 
f 15//14 13//14 14//14 
f 17//15 16//15 18//15 
f 17//16 18//16 19//16 
f 17//17 15//17 16//17 
f 20//18 19//18 21//18 
f 20//19 17//19 19//19 
f 22//20 20//20 21//20 
f 23//21 21//21 24//21 
f 23//22 22//22 21//22 
f 25//23 24//23 26//23 
f 25//24 23//24 24//24 
f 27//25 26//25 28//25 
f 27//26 28//26 29//26 
f 27//27 25//27 26//27 
f 30//28 27//28 29//28 
f 31//29 30//29 29//29 
f 31//30 29//30 32//30 
f 31//31 32//31 33//31 
f 34//32 31//32 33//32 
f 35//33 34//33 33//33 
f 35//34 33//34 36//34 
f 2//35 35//35 36//35 
f 2//36 36//36 3//36 
f 37//37 22//37 23//37 
f 38//38 23//38 25//38 
f 38//39 37//39 23//39 
f 39//40 20//40 22//40 
f 39//41 22//41 37//41 
f 40//42 25//42 27//42 
f 40//43 38//43 25//43 
f 30//44 40//44 27//44 
f 41//45 20//45 39//45 
f 42//46 40//46 30//46 
f 43//47 17//47 20//47 
f 43//48 20//48 41//48 
f 44//49 30//49 31//49 
f 44//50 42//50 30//50 
f 45//51 15//51 17//51 
f 45//52 17//52 43//52 
f 46//53 44//53 31//53 
f 34//54 46//54 31//54 
f 13//55 45//55 47//55 
f 13//56 15//56 45//56 
f 35//57 48//57 46//57 
f 35//58 46//58 34//58 
f 12//59 47//59 49//59 
f 12//60 13//60 47//60 
f 2//61 50//61 51//61 
f 2//62 51//62 48//62 
f 2//63 48//63 35//63 
f 9//64 49//64 52//64 
f 9//65 12//65 49//65 
f 1//66 50//66 2//66 
f 8//67 53//67 54//67 
f 8//68 52//68 53//68 
f 8//69 9//69 52//69 
f 5//70 50//70 1//70 
f 5//71 8//71 54//71 
f 5//72 54//72 50//72 
f 21//73 55//73 24//73 
f 24//74 56//74 26//74 
f 55//75 56//75 24//75 
f 19//76 57//76 21//76 
f 21//77 57//77 55//77 
f 26//78 58//78 28//78 
f 56//79 58//79 26//79 
f 58//80 29//80 28//80 
f 19//81 59//81 57//81 
f 58//82 60//82 29//82 
f 18//83 61//83 19//83 
f 19//84 61//84 59//84 
f 29//85 62//85 32//85 
f 60//86 62//86 29//86 
f 16//87 63//87 18//87 
f 18//88 63//88 61//88 
f 62//89 64//89 32//89 
f 64//90 33//90 32//90 
f 63//91 14//91 65//91 
f 16//92 14//92 63//92 
f 66//93 36//93 64//93 
f 64//94 36//94 33//94 
f 65//95 11//95 67//95 
f 14//96 11//96 65//96 
f 68//97 3//97 69//97 
f 69//98 3//98 66//98 
f 66//99 3//99 36//99 
f 67//100 10//100 70//100 
f 11//101 10//101 67//101 
f 68//102 4//102 3//102 
f 71//103 7//103 72//103 
f 70//104 7//104 71//104 
f 10//105 7//105 70//105 
f 68//106 6//106 4//106 
f 7//107 6//107 72//107 
f 72//108 6//108 68//108 
f 51//109 50//109 69//109 
f 69//110 50//110 68//110 
f 68//111 54//111 72//111 
f 72//112 54//112 71//112 
f 50//113 54//113 68//113 
f 54//114 53//114 71//114 
f 71//115 52//115 70//115 
f 70//116 52//116 67//116 
f 53//117 52//117 71//117 
f 52//118 49//118 67//118 
f 67//119 47//119 65//119 
f 49//120 47//120 67//120 
f 65//121 45//121 63//121 
f 47//122 45//122 65//122 
f 63//123 43//123 61//123 
f 61//124 43//124 59//124 
f 45//125 43//125 63//125 
f 59//126 41//126 57//126 
f 43//127 41//127 59//127 
f 41//128 39//128 57//128 
f 57//129 37//129 55//129 
f 39//130 37//130 57//130 
f 55//131 38//131 56//131 
f 37//132 38//132 55//132 
f 56//133 40//133 58//133 
f 58//134 40//134 60//134 
f 38//135 40//135 56//135 
f 40//136 42//136 60//136 
f 42//137 44//137 60//137 
f 60//138 44//138 62//138 
f 62//139 44//139 64//139 
f 44//140 46//140 64//140 
f 46//141 48//141 64//141 
f 64//142 48//142 66//142 
f 48//143 51//143 66//143 
f 66//144 51//144 69//144 
o Cylinder
usemtl color_cccccc
v 40.0 -0.0 0.0
v 37.587704 13.680806 0.0
v 40.0 -0.0 8700.0
v 37.587704 13.680806 8700.0
v 30.641777 25.711504 0.0
v 30.641777 25.711504 8700.0
v 20.0 34.641018 8700.0
v 20.0 34.641018 0.0
v 6.945927 39.392311 0.0
v 6.945927 39.392311 8700.0
v -6.945927 39.392311 8700.0
v -6.945927 39.392311 0.0
v -20.0 34.641018 0.0
v -20.0 34.641018 8700.0
v -30.641777 25.711504 0.0
v -30.641777 25.711504 8700.0
v -37.587704 13.680806 0.0
v -37.587704 13.680806 8700.0
v -40.0 0.0 8700.0
v -40.0 0.0 0.0
v -37.587704 -13.680806 8700.0
v -37.587704 -13.680806 0.0
v -30.641777 -25.711504 0.0
v -30.641777 -25.711504 8700.0
v -20.0 -34.641018 0.0
v -20.0 -34.641018 8700.0
v -6.945927 -39.392311 0.0
v -6.945927 -39.392311 8700.0
v 6.945927 -39.392311 8700.0
v 6.945927 -39.392311 0.0
v 20.0 -34.641018 0.0
v 20.0 -34.641018 8700.0
v 30.641777 -25.711504 8700.0
v 30.641777 -25.711504 0.0
v 37.587704 -13.680806 0.0
v 37.587704 -13.680806 8700.0
vn 0.9848077297210693 0.17364825308322906 -0.0
vn 0.9848077297210693 0.17364825308322906 0.0
vn 0.8660253882408142 0.5 0.0
vn 0.642787754535675 0.7660443186759949 0.0
vn 0.8660253882408142 0.5 -0.0
vn 0.642787754535675 0.7660443186759949 0.0
vn 0.34202006459236145 0.9396926164627075 0.0
vn 0.0 1.0 0.0
vn 0.34202006459236145 0.9396926164627075 -0.0
vn 0.0 1.0 0.0
vn -0.34202006459236145 0.9396926164627075 0.0
vn -0.34202006459236145 0.9396926164627075 0.0
vn -0.642787754535675 0.7660443186759949 0.0
vn -0.642787754535675 0.7660443186759949 0.0
vn -0.8660253882408142 0.5 0.0
vn -0.9848077297210693 0.17364825308322906 0.0
vn -0.8660253882408142 0.5 0.0
vn -0.9848077297210693 -0.17364825308322906 -0.0
vn -0.9848077297210693 0.17364825308322906 0.0
vn -0.9848077297210693 -0.17364825308322906 0.0
vn -0.8660253882408142 -0.5 0.0
vn -0.8660253882408142 -0.5 0.0
vn -0.642787754535675 -0.7660443186759949 0.0
vn -0.642787754535675 -0.7660443186759949 0.0
vn -0.34202006459236145 -0.9396926164627075 0.0
vn 0.0 -1.0 0.0
vn -0.34202006459236145 -0.9396926164627075 0.0
vn 0.0 -1.0 0.0
vn 0.34202006459236145 -0.9396926164627075 0.0
vn 0.34202006459236145 -0.9396926164627075 0.0
vn 0.642787754535675 -0.7660443186759949 0.0
vn 0.642787754535675 -0.7660443186759949 0.0
vn 0.8660253882408142 -0.5 0.0
vn 0.8660253882408142 -0.5 0.0
vn 0.9848077297210693 -0.17364825308322906 0.0
vn 0.9848077297210693 -0.17364825308322906 0.0
vn 0.0 0.0 -1.0
vn 0.0 0.0 -1.0
vn 0.0 0.0 -1.0
vn 0.0 0.0 -1.0
vn 0.0 0.0 -1.0
vn 0.0 -0.0 -1.0
vn 0.0 -0.0 -1.0
vn 0.0 -0.0 -1.0
vn 0.0 0.0 -1.0
vn 0.0 -0.0 -1.0
vn 0.0 0.0 -1.0
vn 0.0 -0.0 -1.0
vn 0.0 0.0 -1.0
vn 0.0 0.0 -1.0
vn 0.0 0.0 -1.0
vn 0.0 0.0 -1.0
vn 0.0 0.0 1.0
vn 0.0 0.0 1.0
vn 0.0 0.0 1.0
vn 0.0 0.0 1.0
vn 0.0 0.0 1.0
vn 0.0 0.0 1.0
vn 0.0 0.0 1.0
vn 0.0 0.0 1.0
vn 0.0 0.0 1.0
vn 0.0 0.0 1.0
vn 0.0 0.0 1.0
vn 0.0 0.0 1.0
vn 0.0 0.0 1.0
vn 0.0 0.0 1.0
vn 0.0 0.0 1.0
vn 0.0 0.0 1.0
f 73//145 74//145 75//145 
f 75//146 74//146 76//146 
f 76//147 77//147 78//147 
f 78//148 77//148 79//148 
f 74//149 77//149 76//149 
f 77//150 80//150 79//150 
f 79//151 81//151 82//151 
f 82//152 81//152 83//152 
f 80//153 81//153 79//153 
f 81//154 84//154 83//154 
f 83//155 85//155 86//155 
f 84//156 85//156 83//156 
f 86//157 87//157 88//157 
f 85//158 87//158 86//158 
f 88//159 89//159 90//159 
f 90//160 89//160 91//160 
f 87//161 89//161 88//161 
f 91//162 92//162 93//162 
f 89//163 92//163 91//163 
f 92//164 94//164 93//164 
f 93//165 95//165 96//165 
f 94//166 95//166 93//166 
f 96//167 97//167 98//167 
f 95//168 97//168 96//168 
f 98//169 99//169 100//169 
f 100//170 99//170 101//170 
f 97//171 99//171 98//171 
f 99//172 102//172 101//172 
f 102//173 103//173 101//173 
f 101//174 103//174 104//174 
f 104//175 103//175 105//175 
f 103//176 106//176 105//176 
f 106//177 107//177 105//177 
f 105//178 107//178 108//178 
f 107//179 73//179 108//179 
f 108//180 73//180 75//180 
f 94//181 92//181 95//181 
f 95//182 103//182 97//182 
f 97//183 103//183 99//183 
f 99//184 103//184 102//184 
f 103//185 107//185 106//185 
f 85//186 84//186 87//186 
f 87//187 84//187 89//187 
f 89//188 84//188 92//188 
f 92//189 84//189 95//189 
f 84//190 81//190 95//190 
f 95//191 80//191 103//191 
f 81//192 80//192 95//192 
f 73//193 77//193 74//193 
f 107//194 77//194 73//194 
f 103//195 77//195 107//195 
f 80//196 77//196 103//196 
f 91//197 93//197 96//197 
f 104//198 96//198 98//198 
f 104//199 98//199 100//199 
f 104//200 100//200 101//200 
f 108//201 104//201 105//201 
f 83//202 86//202 88//202 
f 83//203 88//203 90//203 
f 83//204 90//204 91//204 
f 83//205 91//205 96//205 
f 82//206 83//206 96//206 
f 79//207 96//207 104//207 
f 79//208 82//208 96//208 
f 78//209 75//209 76//209 
f 78//210 108//210 75//210 
f 78//211 104//211 108//211 
f 78//212 79//212 104//212 
